<?xml version="1.0" encoding="UTF-8" standalone="no"?>
<svg
   xmlns:dc="http://purl.org/dc/elements/1.1/"
   xmlns:cc="http://creativecommons.org/ns#"
   xmlns:rdf="http://www.w3.org/1999/02/22-rdf-syntax-ns#"
   xmlns:svg="http://www.w3.org/2000/svg"
   xmlns="http://www.w3.org/2000/svg"
   xmlns:sodipodi="http://sodipodi.sourceforge.net/DTD/sodipodi-0.dtd"
   xmlns:inkscape="http://www.inkscape.org/namespaces/inkscape"
   id="Purple"
   viewBox="0 0 279 131"
   version="1.1"
   sodipodi:docname="rasa.svg"
   width="279"
   height="131"
   inkscape:version="0.92.3 (2405546, 2018-03-11)">
  <metadata
     id="metadata1020">
    <rdf:RDF>
      <cc:Work
         rdf:about="">
        <dc:format>image/svg+xml</dc:format>
        <dc:type
           rdf:resource="http://purl.org/dc/dcmitype/StillImage" />
        <dc:title>Artboard 4</dc:title>
      </cc:Work>
    </rdf:RDF>
  </metadata>
  <sodipodi:namedview
     pagecolor="#ffffff"
     bordercolor="#666666"
     borderopacity="1"
     objecttolerance="10"
     gridtolerance="10"
     guidetolerance="10"
     inkscape:pageopacity="0"
     inkscape:pageshadow="2"
     inkscape:window-width="1920"
     inkscape:window-height="1043"
     id="namedview1018"
     showgrid="false"
     fit-margin-top="0"
     fit-margin-left="0"
     fit-margin-right="0"
     fit-margin-bottom="0"
     inkscape:zoom="2.9906977"
     inkscape:cx="210"
     inkscape:cy="65.5"
     inkscape:window-x="1920"
     inkscape:window-y="0"
     inkscape:window-maximized="1"
     inkscape:current-layer="Purple" />
  <defs
     id="defs1000">
    <style
       id="style998">.cls-1,.cls-2{fill:#5a17ee;}.cls-2{fill-rule:evenodd;}</style>
  </defs>
  <title
     id="title1002">Artboard 4</title>
  <path
     style="fill:#5a17ee"
     inkscape:connector-curvature="0"
     id="path1004"
     d="m 205,24 v 50.11 h 12 V 59 h 26 v 15 h 12 V 24 Z m 38,23 H 217 V 36 h 26 z"
     class="cls-1" />
  <polygon
     style="fill:#5a17ee"
     id="polygon1006"
     points="187.01,60 150.01,60 150.01,49 150.01,36.5 150.01,29 199.01,29 199.01,41 162.01,41 162.01,48 199.01,48 199.01,56.5 199.01,69 199.01,79 150.01,79 150.01,67 187.01,67 "
     class="cls-1"
     transform="translate(-5,-5)" />
  <path
     style="fill:#5a17ee"
     inkscape:connector-curvature="0"
     id="path1008"
     d="M 84,24 V 74.11 H 96 V 59 h 26 v 15 h 12 V 24 Z m 38,23 H 96 V 36 h 26 z"
     class="cls-1" />
  <path
     style="fill:#5a17ee"
     inkscape:connector-curvature="0"
     id="path1010"
     d="m 56.92,54.94 15.36,-5.59 0.73,-0.29 V 24 H 24 V 74 H 35.85 V 62.59 l 9,-3.26 L 58.4,74 h 14.82 z m -21,-5.12 V 36 H 61 v 4.68 z"
     class="cls-1" />
  <path
     style="fill:#5a17ee"
     inkscape:connector-curvature="0"
     id="path1012"
     d="m 241.66,85.54 h 23.91 V 13.44 H 13.45 v 72.1 h 180 l 48.19,23.82 V 85.54 Z M 0,0 h 279 v 99 h -23.9 v 32 L 190.33,99 H 0 Z"
     class="cls-1" />
</svg>
